<svg xmlns="http://www.w3.org/2000/svg" width="43.352" height="43.352" viewBox="0 0 43.352 43.352">
  <g id="insta_2" transform="translate(0.5 0.5)">
    <path id="Path_9477" data-name="Path 9477" d="M21.176,0A21.176,21.176,0,1,1,0,21.176,21.176,21.176,0,0,1,21.176,0Z" fill="none" stroke="#2d89c8" stroke-width="1"/>
    <g id="Group_20" data-name="Group 20" transform="translate(8.401 8.401)">
      <path id="Path_13" data-name="Path 13" d="M127.406,109.468H117.079a7.62,7.62,0,0,0-7.611,7.611v10.327a7.62,7.62,0,0,0,7.611,7.611h10.327a7.62,7.62,0,0,0,7.611-7.611V117.079a7.62,7.62,0,0,0-7.611-7.611Zm5.041,17.939a5.041,5.041,0,0,1-5.041,5.041H117.079a5.041,5.041,0,0,1-5.041-5.041V117.079a5.041,5.041,0,0,1,5.041-5.041h10.327a5.041,5.041,0,0,1,5.041,5.041Z" transform="translate(-109.468 -109.468)" fill="#2d89c8"/>
      <path id="Path_14" data-name="Path 14" d="M186.81,180.2a6.608,6.608,0,1,0,6.608,6.608,6.616,6.616,0,0,0-6.608-6.608Zm0,10.646a4.038,4.038,0,1,1,4.038-4.038,4.038,4.038,0,0,1-4.038,4.038Z" transform="translate(-174.035 -174.035)" fill="#2d89c8"/>
    </g>
  </g>
</svg>
