<svg xmlns="http://www.w3.org/2000/svg" width="21.063" height="21.063" viewBox="0 0 21.063 21.063">
  <path id="noun_Home_2102808" d="M7.444,15.7,7.9,15.31V26.185a.878.878,0,0,0,.878.878h15.5a.878.878,0,0,0,.878-.878V15.31l.46.388a.878.878,0,0,0,1.132-1.341L22.538,10.8V7.459a.878.878,0,1,0-1.755,0V9.318L17.1,6.207a.878.878,0,0,0-1.132,0l-9.654,8.15A.878.878,0,1,0,7.444,15.7Zm7.126,9.61V18.971h3.923v6.336ZM16.532,8.026l6.873,5.8v11.48H20.248V18.094a.878.878,0,0,0-.878-.878H13.692a.878.878,0,0,0-.878.878v7.214H9.658V13.828Z" transform="translate(-6 -6)" fill="#c6c6c6"/>
</svg>
