<svg xmlns="http://www.w3.org/2000/svg" width="43.357" height="43.357" viewBox="0 0 43.357 43.357">
  <g id="tw_c" transform="translate(0.5 0.5)">
    <path id="Path_9476" data-name="Path 9476" d="M21.178,0A21.178,21.178,0,1,1,0,21.178,21.178,21.178,0,0,1,21.178,0Z" transform="translate(0)" fill="none" stroke="#2d89c8" stroke-width="1"/>
    <g id="Group_2" data-name="Group 2" transform="translate(9.477 12.846)">
      <path id="Path_9" data-name="Path 9" d="M49.777,36.4a10.1,10.1,0,0,1-2.908.8A5.076,5.076,0,0,0,49.1,34.4a10.134,10.134,0,0,1-3.215,1.228,5.066,5.066,0,0,0-8.626,4.618,14.37,14.37,0,0,1-10.434-5.29,5.068,5.068,0,0,0,1.566,6.759,5.026,5.026,0,0,1-2.293-.634c0,.022,0,.043,0,.064a5.065,5.065,0,0,0,4.061,4.963,5.082,5.082,0,0,1-2.286.088A5.068,5.068,0,0,0,32.6,49.71a10.219,10.219,0,0,1-7.495,2.1A14.4,14.4,0,0,0,47.266,39.677c0-.219,0-.438-.015-.655a10.265,10.265,0,0,0,2.526-2.62Z" transform="translate(-25.103 -34.028)" fill="#2d89c8"/>
    </g>
  </g>
</svg>
